<?xml version="1.0" encoding="UTF-8" standalone="no"?>
<!DOCTYPE svg PUBLIC "-//W3C//DTD SVG 1.1//EN"
 "http://www.w3.org/Graphics/SVG/1.1/DTD/svg11.dtd">
<!-- Generated by graphviz version 2.38.0 (20140413.2041)
 -->
<!-- Title: models_diagram Pages: 1 -->
<svg width="587pt" height="926pt"
 viewBox="0.00 0.00 586.56 926.00" xmlns="http://www.w3.org/2000/svg" xmlns:xlink="http://www.w3.org/1999/xlink">
<g id="graph0" class="graph" transform="scale(1 1) rotate(0) translate(4 922)">
<title>models_diagram</title>
<polygon fill="none" stroke="none" points="-4,4 -4,-922 582.556,-922 582.556,4 -4,4"/>
<!-- AdminUser -->
<g id="node1" class="node"><title>AdminUser</title>
<path fill="none" stroke="black" d="M12,-677.5C12,-677.5 192.556,-677.5 192.556,-677.5 198.556,-677.5 204.556,-683.5 204.556,-689.5 204.556,-689.5 204.556,-877.5 204.556,-877.5 204.556,-883.5 198.556,-889.5 192.556,-889.5 192.556,-889.5 12,-889.5 12,-889.5 6,-889.5 0,-883.5 0,-877.5 0,-877.5 0,-689.5 0,-689.5 0,-683.5 6,-677.5 12,-677.5"/>
<text text-anchor="middle" x="102.278" y="-874.3" font-family="Times,serif" font-size="14.00">AdminUser</text>
<polyline fill="none" stroke="black" points="0,-867.5 204.556,-867.5 "/>
<text text-anchor="start" x="8" y="-852.3" font-family="Times,serif" font-size="14.00">id :integer</text>
<text text-anchor="start" x="8" y="-838.3" font-family="Times,serif" font-size="14.00">email :string</text>
<text text-anchor="start" x="8" y="-824.3" font-family="Times,serif" font-size="14.00">encrypted_password :string</text>
<text text-anchor="start" x="8" y="-810.3" font-family="Times,serif" font-size="14.00">reset_password_token :string</text>
<text text-anchor="start" x="8" y="-796.3" font-family="Times,serif" font-size="14.00">reset_password_sent_at :datetime</text>
<text text-anchor="start" x="8" y="-782.3" font-family="Times,serif" font-size="14.00">remember_created_at :datetime</text>
<text text-anchor="start" x="8" y="-768.3" font-family="Times,serif" font-size="14.00">sign_in_count :integer</text>
<text text-anchor="start" x="8" y="-754.3" font-family="Times,serif" font-size="14.00">current_sign_in_at :datetime</text>
<text text-anchor="start" x="8" y="-740.3" font-family="Times,serif" font-size="14.00">last_sign_in_at :datetime</text>
<text text-anchor="start" x="8" y="-726.3" font-family="Times,serif" font-size="14.00">current_sign_in_ip :inet</text>
<text text-anchor="start" x="8" y="-712.3" font-family="Times,serif" font-size="14.00">last_sign_in_ip :inet</text>
<text text-anchor="start" x="8" y="-698.3" font-family="Times,serif" font-size="14.00">created_at :datetime</text>
<text text-anchor="start" x="8" y="-684.3" font-family="Times,serif" font-size="14.00">updated_at :datetime</text>
</g>
<!-- Device -->
<g id="node2" class="node"><title>Device</title>
<path fill="none" stroke="black" d="M234.772,-740.5C234.772,-740.5 343.783,-740.5 343.783,-740.5 349.783,-740.5 355.783,-746.5 355.783,-752.5 355.783,-752.5 355.783,-814.5 355.783,-814.5 355.783,-820.5 349.783,-826.5 343.783,-826.5 343.783,-826.5 234.772,-826.5 234.772,-826.5 228.772,-826.5 222.772,-820.5 222.772,-814.5 222.772,-814.5 222.772,-752.5 222.772,-752.5 222.772,-746.5 228.772,-740.5 234.772,-740.5"/>
<text text-anchor="middle" x="289.278" y="-811.3" font-family="Times,serif" font-size="14.00">Device</text>
<polyline fill="none" stroke="black" points="222.772,-804.5 355.783,-804.5 "/>
<text text-anchor="start" x="230.772" y="-789.3" font-family="Times,serif" font-size="14.00">id :integer</text>
<text text-anchor="start" x="230.772" y="-775.3" font-family="Times,serif" font-size="14.00">api_location :string</text>
<text text-anchor="start" x="230.772" y="-761.3" font-family="Times,serif" font-size="14.00">created_at :datetime</text>
<text text-anchor="start" x="230.772" y="-747.3" font-family="Times,serif" font-size="14.00">updated_at :datetime</text>
</g>
<!-- Grow -->
<g id="node3" class="node"><title>Grow</title>
<path fill="none" stroke="black" d="M363.766,-330.5C363.766,-330.5 486.79,-330.5 486.79,-330.5 492.79,-330.5 498.79,-336.5 498.79,-342.5 498.79,-342.5 498.79,-600.5 498.79,-600.5 498.79,-606.5 492.79,-612.5 486.79,-612.5 486.79,-612.5 363.766,-612.5 363.766,-612.5 357.766,-612.5 351.766,-606.5 351.766,-600.5 351.766,-600.5 351.766,-342.5 351.766,-342.5 351.766,-336.5 357.766,-330.5 363.766,-330.5"/>
<text text-anchor="middle" x="425.278" y="-597.3" font-family="Times,serif" font-size="14.00">Grow</text>
<polyline fill="none" stroke="black" points="351.766,-590.5 498.79,-590.5 "/>
<text text-anchor="start" x="359.766" y="-575.3" font-family="Times,serif" font-size="14.00">id :integer</text>
<text text-anchor="start" x="359.766" y="-561.3" font-family="Times,serif" font-size="14.00">user_id :integer</text>
<text text-anchor="start" x="359.766" y="-547.3" font-family="Times,serif" font-size="14.00">api_location :string</text>
<text text-anchor="start" x="359.766" y="-533.3" font-family="Times,serif" font-size="14.00">start :date</text>
<text text-anchor="start" x="359.766" y="-519.3" font-family="Times,serif" font-size="14.00">end :date</text>
<text text-anchor="start" x="359.766" y="-505.3" font-family="Times,serif" font-size="14.00">name :string</text>
<text text-anchor="start" x="359.766" y="-491.3" font-family="Times,serif" font-size="14.00">description :text</text>
<text text-anchor="start" x="359.766" y="-477.3" font-family="Times,serif" font-size="14.00">temp_low :float</text>
<text text-anchor="start" x="359.766" y="-463.3" font-family="Times,serif" font-size="14.00">temp_high :float</text>
<text text-anchor="start" x="359.766" y="-449.3" font-family="Times,serif" font-size="14.00">hum_low :float</text>
<text text-anchor="start" x="359.766" y="-435.3" font-family="Times,serif" font-size="14.00">hum_high :float</text>
<text text-anchor="start" x="359.766" y="-421.3" font-family="Times,serif" font-size="14.00">created_at :datetime</text>
<text text-anchor="start" x="359.766" y="-407.3" font-family="Times,serif" font-size="14.00">updated_at :datetime</text>
<text text-anchor="start" x="359.766" y="-393.3" font-family="Times,serif" font-size="14.00">allow_sharing :boolean</text>
<text text-anchor="start" x="359.766" y="-379.3" font-family="Times,serif" font-size="14.00">info_link :string</text>
<text text-anchor="start" x="359.766" y="-365.3" font-family="Times,serif" font-size="14.00">image_url :string</text>
<text text-anchor="start" x="359.766" y="-351.3" font-family="Times,serif" font-size="14.00">latin :string</text>
<text text-anchor="start" x="359.766" y="-337.3" font-family="Times,serif" font-size="14.00">crop :datetime</text>
</g>
<!-- Notification -->
<g id="node4" class="node"><title>Notification</title>
<path fill="none" stroke="black" d="M329.772,-0.5C329.772,-0.5 438.783,-0.5 438.783,-0.5 444.783,-0.5 450.783,-6.5 450.783,-12.5 450.783,-12.5 450.783,-130.5 450.783,-130.5 450.783,-136.5 444.783,-142.5 438.783,-142.5 438.783,-142.5 329.772,-142.5 329.772,-142.5 323.772,-142.5 317.772,-136.5 317.772,-130.5 317.772,-130.5 317.772,-12.5 317.772,-12.5 317.772,-6.5 323.772,-0.5 329.772,-0.5"/>
<text text-anchor="middle" x="384.278" y="-127.3" font-family="Times,serif" font-size="14.00">Notification</text>
<polyline fill="none" stroke="black" points="317.772,-120.5 450.783,-120.5 "/>
<text text-anchor="start" x="325.772" y="-105.3" font-family="Times,serif" font-size="14.00">id :integer</text>
<text text-anchor="start" x="325.772" y="-91.3" font-family="Times,serif" font-size="14.00">grow_id :integer</text>
<text text-anchor="start" x="325.772" y="-77.3" font-family="Times,serif" font-size="14.00">content :text</text>
<text text-anchor="start" x="325.772" y="-63.3" font-family="Times,serif" font-size="14.00">dismissed :boolean</text>
<text text-anchor="start" x="325.772" y="-49.3" font-family="Times,serif" font-size="14.00">created_at :datetime</text>
<text text-anchor="start" x="325.772" y="-35.3" font-family="Times,serif" font-size="14.00">updated_at :datetime</text>
<text text-anchor="start" x="325.772" y="-21.3" font-family="Times,serif" font-size="14.00">status_id :integer</text>
<text text-anchor="start" x="325.772" y="-7.3" font-family="Times,serif" font-size="14.00">schedule_id :integer</text>
</g>
<!-- Grow&#45;&gt;Notification -->
<g id="edge2" class="edge"><title>Grow&#45;&gt;Notification</title>
<path fill="none" stroke="#719875" d="M362.878,-322.306C360.283,-312.831 358.04,-303.346 356.278,-294 346.809,-243.774 349.726,-229.689 356.278,-179 357.391,-170.39 358.99,-161.484 360.868,-152.657"/>
<ellipse fill="none" stroke="#719875" cx="364.044" cy="-326.411" rx="4.00001" ry="4.00001"/>
<polygon fill="#719875" stroke="#719875" points="360.902,-152.502 367.486,-143.732 361.999,-147.623 363.095,-142.745 363.095,-142.745 363.095,-142.745 361.999,-147.623 358.705,-141.758 360.902,-152.502 360.902,-152.502"/>
</g>
<!-- Schedule -->
<g id="node5" class="node"><title>Schedule</title>
<path fill="none" stroke="black" d="M377.772,-179.5C377.772,-179.5 486.783,-179.5 486.783,-179.5 492.783,-179.5 498.783,-185.5 498.783,-191.5 498.783,-191.5 498.783,-281.5 498.783,-281.5 498.783,-287.5 492.783,-293.5 486.783,-293.5 486.783,-293.5 377.772,-293.5 377.772,-293.5 371.772,-293.5 365.772,-287.5 365.772,-281.5 365.772,-281.5 365.772,-191.5 365.772,-191.5 365.772,-185.5 371.772,-179.5 377.772,-179.5"/>
<text text-anchor="middle" x="432.278" y="-278.3" font-family="Times,serif" font-size="14.00">Schedule</text>
<polyline fill="none" stroke="black" points="365.772,-271.5 498.783,-271.5 "/>
<text text-anchor="start" x="373.772" y="-256.3" font-family="Times,serif" font-size="14.00">id :integer</text>
<text text-anchor="start" x="373.772" y="-242.3" font-family="Times,serif" font-size="14.00">grow_id :integer</text>
<text text-anchor="start" x="373.772" y="-228.3" font-family="Times,serif" font-size="14.00">time :datetime</text>
<text text-anchor="start" x="373.772" y="-214.3" font-family="Times,serif" font-size="14.00">title :text</text>
<text text-anchor="start" x="373.772" y="-200.3" font-family="Times,serif" font-size="14.00">created_at :datetime</text>
<text text-anchor="start" x="373.772" y="-186.3" font-family="Times,serif" font-size="14.00">updated_at :datetime</text>
</g>
<!-- Grow&#45;&gt;Schedule -->
<g id="edge1" class="edge"><title>Grow&#45;&gt;Schedule</title>
<path fill="none" stroke="#c7cd7d" d="M429.733,-322.205C429.92,-315.981 430.103,-309.889 430.28,-304.006"/>
<ellipse fill="none" stroke="#c7cd7d" cx="429.611" cy="-326.259" rx="4" ry="4"/>
<polygon fill="#c7cd7d" stroke="#c7cd7d" points="430.29,-303.656 435.089,-293.795 430.44,-298.658 430.591,-293.66 430.591,-293.66 430.591,-293.66 430.44,-298.658 426.093,-293.525 430.29,-303.656 430.29,-303.656"/>
</g>
<!-- Schedule&#45;&gt;Notification -->
<g id="edge3" class="edge"><title>Schedule&#45;&gt;Notification</title>
<path fill="none" stroke="#b153cf" d="M413.433,-171.506C411.595,-165.264 409.715,-158.879 407.838,-152.505"/>
<ellipse fill="none" stroke="#b153cf" cx="414.629" cy="-175.568" rx="4.00001" ry="4.00001"/>
<polygon fill="#b153cf" stroke="#b153cf" points="407.723,-152.115 409.215,-141.252 406.31,-147.319 404.898,-142.523 404.898,-142.523 404.898,-142.523 406.31,-147.319 400.581,-143.794 407.723,-152.115 407.723,-152.115"/>
</g>
<!-- Status -->
<g id="node6" class="node"><title>Status</title>
<path fill="none" stroke="black" d="M187.772,-186.5C187.772,-186.5 296.783,-186.5 296.783,-186.5 302.783,-186.5 308.783,-192.5 308.783,-198.5 308.783,-198.5 308.783,-274.5 308.783,-274.5 308.783,-280.5 302.783,-286.5 296.783,-286.5 296.783,-286.5 187.772,-286.5 187.772,-286.5 181.772,-286.5 175.772,-280.5 175.772,-274.5 175.772,-274.5 175.772,-198.5 175.772,-198.5 175.772,-192.5 181.772,-186.5 187.772,-186.5"/>
<text text-anchor="middle" x="242.278" y="-271.3" font-family="Times,serif" font-size="14.00">Status</text>
<polyline fill="none" stroke="black" points="175.772,-264.5 308.783,-264.5 "/>
<text text-anchor="start" x="183.772" y="-249.3" font-family="Times,serif" font-size="14.00">id :integer</text>
<text text-anchor="start" x="183.772" y="-235.3" font-family="Times,serif" font-size="14.00">temperature :float</text>
<text text-anchor="start" x="183.772" y="-221.3" font-family="Times,serif" font-size="14.00">humidity :float</text>
<text text-anchor="start" x="183.772" y="-207.3" font-family="Times,serif" font-size="14.00">created_at :datetime</text>
<text text-anchor="start" x="183.772" y="-193.3" font-family="Times,serif" font-size="14.00">updated_at :datetime</text>
</g>
<!-- Status&#45;&gt;Notification -->
<g id="edge4" class="edge"><title>Status&#45;&gt;Notification</title>
<path fill="none" stroke="#467927" d="M290.652,-179.971C298.967,-170.427 307.744,-160.352 316.457,-150.35"/>
<ellipse fill="none" stroke="#467927" cx="287.895" cy="-183.136" rx="4.00002" ry="4.00002"/>
<polygon fill="#467927" stroke="#467927" points="316.531,-150.266 326.492,-145.682 319.815,-146.496 323.099,-142.726 323.099,-142.726 323.099,-142.726 319.815,-146.496 319.706,-139.77 316.531,-150.266 316.531,-150.266"/>
</g>
<!-- User -->
<g id="node7" class="node"><title>User</title>
<path fill="none" stroke="black" d="M386,-649.5C386,-649.5 566.556,-649.5 566.556,-649.5 572.556,-649.5 578.556,-655.5 578.556,-661.5 578.556,-661.5 578.556,-905.5 578.556,-905.5 578.556,-911.5 572.556,-917.5 566.556,-917.5 566.556,-917.5 386,-917.5 386,-917.5 380,-917.5 374,-911.5 374,-905.5 374,-905.5 374,-661.5 374,-661.5 374,-655.5 380,-649.5 386,-649.5"/>
<text text-anchor="middle" x="476.278" y="-902.3" font-family="Times,serif" font-size="14.00">User</text>
<polyline fill="none" stroke="black" points="374,-895.5 578.556,-895.5 "/>
<text text-anchor="start" x="382" y="-880.3" font-family="Times,serif" font-size="14.00">id :integer</text>
<text text-anchor="start" x="382" y="-866.3" font-family="Times,serif" font-size="14.00">email :string</text>
<text text-anchor="start" x="382" y="-852.3" font-family="Times,serif" font-size="14.00">encrypted_password :string</text>
<text text-anchor="start" x="382" y="-838.3" font-family="Times,serif" font-size="14.00">reset_password_token :string</text>
<text text-anchor="start" x="382" y="-824.3" font-family="Times,serif" font-size="14.00">reset_password_sent_at :datetime</text>
<text text-anchor="start" x="382" y="-810.3" font-family="Times,serif" font-size="14.00">remember_created_at :datetime</text>
<text text-anchor="start" x="382" y="-796.3" font-family="Times,serif" font-size="14.00">sign_in_count :integer</text>
<text text-anchor="start" x="382" y="-782.3" font-family="Times,serif" font-size="14.00">current_sign_in_at :datetime</text>
<text text-anchor="start" x="382" y="-768.3" font-family="Times,serif" font-size="14.00">last_sign_in_at :datetime</text>
<text text-anchor="start" x="382" y="-754.3" font-family="Times,serif" font-size="14.00">current_sign_in_ip :inet</text>
<text text-anchor="start" x="382" y="-740.3" font-family="Times,serif" font-size="14.00">last_sign_in_ip :inet</text>
<text text-anchor="start" x="382" y="-726.3" font-family="Times,serif" font-size="14.00">confirmation_token :string</text>
<text text-anchor="start" x="382" y="-712.3" font-family="Times,serif" font-size="14.00">confirmed_at :datetime</text>
<text text-anchor="start" x="382" y="-698.3" font-family="Times,serif" font-size="14.00">confirmation_sent_at :datetime</text>
<text text-anchor="start" x="382" y="-684.3" font-family="Times,serif" font-size="14.00">unconfirmed_email :string</text>
<text text-anchor="start" x="382" y="-670.3" font-family="Times,serif" font-size="14.00">created_at :datetime</text>
<text text-anchor="start" x="382" y="-656.3" font-family="Times,serif" font-size="14.00">updated_at :datetime</text>
</g>
<!-- User&#45;&gt;Grow -->
<g id="edge5" class="edge"><title>User&#45;&gt;Grow</title>
<path fill="none" stroke="#002ed1" d="M453.038,-641.241C452.033,-635.131 451.023,-628.992 450.015,-622.863"/>
<ellipse fill="none" stroke="#002ed1" cx="453.704" cy="-645.286" rx="4.00001" ry="4.00001"/>
<polygon fill="#002ed1" stroke="#002ed1" points="449.944,-622.431 452.761,-611.833 449.132,-617.497 448.321,-612.564 448.321,-612.564 448.321,-612.564 449.132,-617.497 443.88,-613.294 449.944,-622.431 449.944,-622.431"/>
</g>
<!-- User&#45;&gt;Notification -->
<g id="edge6" class="edge"><title>User&#45;&gt;Notification</title>
<path fill="none" stroke="#ce3917" d="M519.575,-641.416C550.434,-514.46 575.733,-325.854 508.278,-179 497.455,-155.438 478.561,-135.128 458.737,-118.75"/>
<ellipse fill="none" stroke="#ce3917" cx="518.588" cy="-645.425" rx="4.00001" ry="4.00001"/>
<polygon fill="#ce3917" stroke="#ce3917" points="458.632,-118.667 453.613,-108.918 454.721,-115.553 450.81,-112.438 450.81,-112.438 450.81,-112.438 454.721,-115.553 448.007,-115.958 458.632,-118.667 458.632,-118.667"/>
</g>
</g>
</svg>
